# xmcd
#
# Track frame offsets:
#	150
#	15916
#	31276
#	49251
#	62904
#	82386
#	98712
#	117362
#	135010
#	149101
#	162966
#	178046
#
# Disc length: 2602 seconds
#
# Revision: 1
# Processed by: cddbd v1.5.2PL0 Copyright (c) Steve Scherf et al.
# Submitted via: audiograbber 1.83.01
#
DISCID=a20a280c
DTITLE=David St. Romain - All I Really Wanted To Say
DYEAR=2010
DGENRE=Country
TTITLE0=That's Love
TTITLE1=All I Really Wanted To Say
TTITLE2=Evening, All Afternoon
TTITLE3=Let's Get Down (The Underwear Song)
TTITLE4=That's The Kind Of Love
TTITLE5=Touch
TTITLE6=Live, Laugh, Love and Drink
TTITLE7=Make Do
TTITLE8=You Deserve To Be Loved
TTITLE9=Didn't Even See The Dust
TTITLE10=Do I Love You Enough
TTITLE11=Twenty Years Late
EXTD=
EXTT0=
EXTT1=
EXTT2=
EXTT3=
EXTT4=
EXTT5=
EXTT6=
EXTT7=
EXTT8=
EXTT9=
EXTT10=
EXTT11=
PLAYORDER=
